<svg width="206" height="157" viewBox="0 0 206 157" fill="none" xmlns="http://www.w3.org/2000/svg">
  <path d="M127.224 126.837V35.9784L184.859 79.739V126.837H127.224Z" fill="#DF6901" />
  <path d="M137.921 106.187L127.224 35.9784L184.859 79.739V126.837L137.921 106.187Z" fill="#F57300" />
  <path d="M189.892 79.4861L127.224 31.5282V19.5373L206 79.4861H189.892Z" fill="#EFEFEF" />
  <path d="M19.1277 99.6415L60.0257 126.837H96.1417V35.9784L19.1277 99.6415Z" fill="#181818" />
  <path d="M19.1277 99.5121L60.0257 126.708L50.5877 95.0619L96.1417 35.8491L19.1277 99.5121Z" fill="#252525" />
  <path d="M96.1417 31.5282L14.7233 99.5178H0L96.1417 19.5373V31.5282Z" fill="#EFEFEF" />
  <path d="M99.036 17.065V126.837H124.456V29.0746L117.031 35.5008L99.036 17.065Z" fill="#9E9E9E" />
  <path d="M99.036 17.065V65.8881L124.456 87.8921V29.0746L117.031 35.5008L99.036 17.065Z" fill="#BEBEBE" />
  <path d="M117.031 31.1574L99.036 12.7819V0L117.031 18.7956L124.456 12.7054V24.7522L117.031 31.1574Z" fill="#EFEFEF" />
  <rect x="45.6799" y="132.771" width="139.179" height="4.69747" fill="#181818" />
  <path d="M54.498 150.15C54.8447 150.15 55.1663 150.055 55.463 149.865L55.598 150.165C55.2713 150.379 54.893 150.485 54.463 150.485C53.913 150.485 53.473 150.315 53.143 149.975C52.813 149.635 52.648 149.18 52.648 148.61C52.648 148.034 52.8113 147.577 53.138 147.24C53.4647 146.904 53.9063 146.735 54.463 146.735C54.893 146.735 55.2713 146.842 55.598 147.055L55.463 147.355C55.1663 147.165 54.8447 147.07 54.498 147.07C54.058 147.07 53.7063 147.21 53.443 147.49C53.183 147.767 53.053 148.14 53.053 148.61C53.053 149.08 53.1863 149.455 53.453 149.735C53.723 150.012 54.0713 150.15 54.498 150.15ZM58.4446 148.14H57.4946V150.435H57.0996V148.14H56.1496V147.835H58.4446V148.14ZM60.2587 150.485C59.882 150.485 59.602 150.334 59.4187 150.03H59.4087V151.535H59.0437V147.835H59.3937L59.3987 148.275H59.4087C59.592 147.949 59.8754 147.785 60.2587 147.785C60.5854 147.785 60.842 147.902 61.0287 148.135C61.2154 148.365 61.3087 148.699 61.3087 149.135C61.3087 149.562 61.212 149.894 61.0187 150.13C60.8287 150.367 60.5754 150.485 60.2587 150.485ZM60.9487 149.135C60.9487 148.795 60.8804 148.535 60.7437 148.355C60.6104 148.175 60.422 148.085 60.1787 148.085C59.9487 148.085 59.762 148.175 59.6187 148.355C59.4787 148.535 59.4087 148.784 59.4087 149.1V149.17C59.4087 149.494 59.4804 149.744 59.6237 149.92C59.767 150.097 59.952 150.185 60.1787 150.185C60.4154 150.185 60.602 150.095 60.7387 149.915C60.8787 149.732 60.9487 149.472 60.9487 149.135ZM63.5799 148.365C63.4299 148.179 63.2232 148.085 62.9599 148.085C62.6966 148.085 62.4882 148.179 62.3349 148.365C62.1849 148.549 62.1099 148.805 62.1099 149.135C62.1099 149.465 62.1849 149.724 62.3349 149.91C62.4882 150.094 62.6966 150.185 62.9599 150.185C63.2232 150.185 63.4299 150.094 63.5799 149.91C63.7332 149.724 63.8099 149.465 63.8099 149.135C63.8099 148.805 63.7332 148.549 63.5799 148.365ZM63.8499 150.12C63.6266 150.364 63.3299 150.485 62.9599 150.485C62.5899 150.485 62.2932 150.364 62.0699 150.12C61.8466 149.877 61.7349 149.549 61.7349 149.135C61.7349 148.722 61.8466 148.394 62.0699 148.15C62.2932 147.907 62.5899 147.785 62.9599 147.785C63.3299 147.785 63.6266 147.907 63.8499 148.15C64.0732 148.394 64.1849 148.722 64.1849 149.135C64.1849 149.549 64.0732 149.877 63.8499 150.12ZM65.1415 149.925H65.1515L66.6315 147.835H67.0415V150.435H66.6615V148.345H66.6565L65.1715 150.435H64.7615V147.835H65.1415V149.925ZM69.9387 148.14H68.9887V150.435H68.5937V148.14H67.6437V147.835H69.9387V148.14ZM70.7378 148.985H72.3378C72.3345 148.695 72.2645 148.472 72.1278 148.315C71.9912 148.159 71.8028 148.08 71.5628 148.08C71.3128 148.08 71.1145 148.16 70.9678 148.32C70.8245 148.477 70.7478 148.699 70.7378 148.985ZM70.7378 149.275C70.7445 149.559 70.8312 149.782 70.9978 149.945C71.1645 150.109 71.3812 150.19 71.6478 150.19C71.9045 150.19 72.1595 150.124 72.4128 149.99L72.5128 150.275C72.2328 150.415 71.9328 150.485 71.6128 150.485C71.2395 150.485 70.9378 150.364 70.7078 150.12C70.4778 149.877 70.3628 149.549 70.3628 149.135C70.3628 148.715 70.4695 148.385 70.6828 148.145C70.8995 147.905 71.1928 147.785 71.5628 147.785C71.9228 147.785 72.2012 147.9 72.3978 148.13C72.5978 148.357 72.6978 148.684 72.6978 149.11C72.6978 149.154 72.6945 149.209 72.6878 149.275H70.7378ZM73.7166 149.115V147.835H75.6416V150.435H75.2716V148.145H74.0766V149.175C74.0766 149.672 74.005 150.009 73.8616 150.185C73.7183 150.362 73.445 150.462 73.0416 150.485L73.0216 150.175C73.215 150.165 73.3566 150.134 73.4466 150.08C73.54 150.027 73.6083 149.929 73.6516 149.785C73.695 149.639 73.7166 149.415 73.7166 149.115ZM76.3923 147.835H76.7573V148.635C76.9007 148.609 77.054 148.595 77.2173 148.595C77.6107 148.595 77.909 148.677 78.1123 148.84C78.3157 149 78.4173 149.224 78.4173 149.51C78.4173 150.16 78.0007 150.485 77.1673 150.485C76.8907 150.485 76.6323 150.46 76.3923 150.41V147.835ZM76.7573 148.935V150.14C76.8907 150.17 77.0357 150.185 77.1923 150.185C77.769 150.185 78.0573 149.96 78.0573 149.51C78.0573 149.1 77.7607 148.895 77.1673 148.895C77.0207 148.895 76.884 148.909 76.7573 148.935ZM79.38 149.185V150.435H78.99V147.835H79.38V148.895H80.855V147.835H81.245V150.435H80.855V149.185H79.38ZM82.9429 147.785C83.3063 147.785 83.5663 147.86 83.7229 148.01C83.8796 148.16 83.9579 148.407 83.9579 148.75V149.735C83.9579 149.972 83.9829 150.205 84.0329 150.435H83.6829C83.6563 150.305 83.6396 150.152 83.6329 149.975H83.6229C83.5329 150.135 83.4029 150.26 83.2329 150.35C83.0629 150.44 82.8713 150.485 82.6579 150.485C82.4179 150.485 82.2263 150.419 82.0829 150.285C81.9396 150.149 81.8679 149.965 81.8679 149.735C81.8679 149.445 81.9946 149.215 82.2479 149.045C82.5013 148.872 82.8613 148.785 83.3279 148.785H83.5929V148.76C83.5929 148.507 83.5446 148.332 83.4479 148.235C83.3546 148.135 83.1863 148.085 82.9429 148.085C82.6296 148.085 82.3379 148.162 82.0679 148.315L82.0029 148.02C82.2896 147.864 82.6029 147.785 82.9429 147.785ZM82.2279 149.72C82.2279 149.87 82.2746 149.989 82.3679 150.075C82.4613 150.159 82.5863 150.2 82.7429 150.2C82.9729 150.2 83.1713 150.119 83.3379 149.955C83.5079 149.789 83.5929 149.585 83.5929 149.345V149.065H83.3279C82.9779 149.065 82.7063 149.125 82.5129 149.245C82.3229 149.362 82.2279 149.52 82.2279 149.72ZM85.3272 149.195C85.1272 149.152 84.9622 149.077 84.8322 148.97C84.7055 148.86 84.6422 148.714 84.6422 148.53C84.6422 148.044 85.0338 147.8 85.8172 147.8C86.0938 147.8 86.3638 147.819 86.6272 147.855V150.435H86.2472V149.32H85.9022C85.7188 149.32 85.5905 149.344 85.5172 149.39C85.4472 149.434 85.3672 149.547 85.2772 149.73L84.9422 150.435H84.5572L84.9222 149.7C85.0022 149.54 85.0705 149.425 85.1272 149.355C85.1872 149.285 85.2538 149.235 85.3272 149.205V149.195ZM86.2472 149.04V148.115C86.1138 148.095 85.9755 148.085 85.8322 148.085C85.2822 148.085 85.0072 148.244 85.0072 148.56C85.0072 148.88 85.3005 149.04 85.8872 149.04H86.2472ZM89.2889 148.655H89.2789V150.435H88.8789V146.785H89.2789V148.41H89.2889L90.9089 146.785H91.3939L89.6389 148.535L91.4439 150.435H90.9639L89.2889 148.655ZM93.6629 148.365C93.5129 148.179 93.3063 148.085 93.0429 148.085C92.7796 148.085 92.5713 148.179 92.4179 148.365C92.2679 148.549 92.1929 148.805 92.1929 149.135C92.1929 149.465 92.2679 149.724 92.4179 149.91C92.5713 150.094 92.7796 150.185 93.0429 150.185C93.3063 150.185 93.5129 150.094 93.6629 149.91C93.8163 149.724 93.8929 149.465 93.8929 149.135C93.8929 148.805 93.8163 148.549 93.6629 148.365ZM93.9329 150.12C93.7096 150.364 93.4129 150.485 93.0429 150.485C92.6729 150.485 92.3763 150.364 92.1529 150.12C91.9296 149.877 91.8179 149.549 91.8179 149.135C91.8179 148.722 91.9296 148.394 92.1529 148.15C92.3763 147.907 92.6729 147.785 93.0429 147.785C93.4129 147.785 93.7096 147.907 93.9329 148.15C94.1563 148.394 94.2679 148.722 94.2679 149.135C94.2679 149.549 94.1563 149.877 93.9329 150.12ZM97.3695 148.335L96.4645 149.665H96.1295L95.2245 148.335H95.2145V150.435H94.8445V147.835H95.2845L96.2945 149.385H96.2995L97.3095 147.835H97.7545V150.435H97.3795V148.335H97.3695ZM98.5066 147.835H100.707V150.435H100.342V148.145H98.8716V150.435H98.5066V147.835ZM102.406 147.785C102.769 147.785 103.029 147.86 103.186 148.01C103.342 148.16 103.421 148.407 103.421 148.75V149.735C103.421 149.972 103.446 150.205 103.496 150.435H103.146C103.119 150.305 103.102 150.152 103.096 149.975H103.086C102.996 150.135 102.866 150.26 102.696 150.35C102.526 150.44 102.334 150.485 102.121 150.485C101.881 150.485 101.689 150.419 101.546 150.285C101.402 150.149 101.331 149.965 101.331 149.735C101.331 149.445 101.457 149.215 101.711 149.045C101.964 148.872 102.324 148.785 102.791 148.785H103.056V148.76C103.056 148.507 103.007 148.332 102.911 148.235C102.817 148.135 102.649 148.085 102.406 148.085C102.092 148.085 101.801 148.162 101.531 148.315L101.466 148.02C101.752 147.864 102.066 147.785 102.406 147.785ZM101.691 149.72C101.691 149.87 101.737 149.989 101.831 150.075C101.924 150.159 102.049 150.2 102.206 150.2C102.436 150.2 102.634 150.119 102.801 149.955C102.971 149.789 103.056 149.585 103.056 149.345V149.065H102.791C102.441 149.065 102.169 149.125 101.976 149.245C101.786 149.362 101.691 149.52 101.691 149.72ZM104.585 149.185V150.435H104.195V147.835H104.585V148.895H106.06V147.835H106.45V150.435H106.06V149.185H104.585ZM107.578 149.925H107.588L109.068 147.835H109.478V150.435H109.098V148.345H109.093L107.608 150.435H107.198V147.835H107.578V149.925ZM110.825 149.195C110.625 149.152 110.46 149.077 110.33 148.97C110.204 148.86 110.14 148.714 110.14 148.53C110.14 148.044 110.532 147.8 111.315 147.8C111.592 147.8 111.862 147.819 112.125 147.855V150.435H111.745V149.32H111.4C111.217 149.32 111.089 149.344 111.015 149.39C110.945 149.434 110.865 149.547 110.775 149.73L110.44 150.435H110.055L110.42 149.7C110.5 149.54 110.569 149.425 110.625 149.355C110.685 149.285 110.752 149.235 110.825 149.205V149.195ZM111.745 149.04V148.115C111.612 148.095 111.474 148.085 111.33 148.085C110.78 148.085 110.505 148.244 110.505 148.56C110.505 148.88 110.799 149.04 111.385 149.04H111.745ZM116.917 146.785V147.125H115.787V150.435H115.387V147.125H114.252V146.785H116.917ZM117.794 148.985H119.394C119.39 148.695 119.32 148.472 119.184 148.315C119.047 148.159 118.859 148.08 118.619 148.08C118.369 148.08 118.17 148.16 118.024 148.32C117.88 148.477 117.804 148.699 117.794 148.985ZM117.794 149.275C117.8 149.559 117.887 149.782 118.054 149.945C118.22 150.109 118.437 150.19 118.704 150.19C118.96 150.19 119.215 150.124 119.469 149.99L119.569 150.275C119.289 150.415 118.989 150.485 118.669 150.485C118.295 150.485 117.994 150.364 117.764 150.12C117.534 149.877 117.419 149.549 117.419 149.135C117.419 148.715 117.525 148.385 117.739 148.145C117.955 147.905 118.249 147.785 118.619 147.785C118.979 147.785 119.257 147.9 119.454 148.13C119.654 148.357 119.754 148.684 119.754 149.11C119.754 149.154 119.75 149.209 119.744 149.275H117.794ZM121.362 148.87H121.372L122.052 147.835H122.467L121.582 149.115L122.492 150.435H122.062L121.357 149.355H121.347L120.647 150.435H120.227L121.142 149.115L120.252 147.835H120.682L121.362 148.87ZM123.506 149.185V150.435H123.116V147.835H123.506V148.895H124.981V147.835H125.371V150.435H124.981V149.185H123.506ZM127.789 148.365C127.639 148.179 127.432 148.085 127.169 148.085C126.906 148.085 126.697 148.179 126.544 148.365C126.394 148.549 126.319 148.805 126.319 149.135C126.319 149.465 126.394 149.724 126.544 149.91C126.697 150.094 126.906 150.185 127.169 150.185C127.432 150.185 127.639 150.094 127.789 149.91C127.942 149.724 128.019 149.465 128.019 149.135C128.019 148.805 127.942 148.549 127.789 148.365ZM128.059 150.12C127.836 150.364 127.539 150.485 127.169 150.485C126.799 150.485 126.502 150.364 126.279 150.12C126.056 149.877 125.944 149.549 125.944 149.135C125.944 148.722 126.056 148.394 126.279 148.15C126.502 147.907 126.799 147.785 127.169 147.785C127.539 147.785 127.836 147.907 128.059 148.15C128.282 148.394 128.394 148.722 128.394 149.135C128.394 149.549 128.282 149.877 128.059 150.12ZM130.645 150.15C130.992 150.15 131.314 150.055 131.61 149.865L131.745 150.165C131.419 150.379 131.04 150.485 130.61 150.485C130.06 150.485 129.62 150.315 129.29 149.975C128.96 149.635 128.795 149.18 128.795 148.61C128.795 148.034 128.959 147.577 129.285 147.24C129.612 146.904 130.054 146.735 130.61 146.735C131.04 146.735 131.419 146.842 131.745 147.055L131.61 147.355C131.314 147.165 130.992 147.07 130.645 147.07C130.205 147.07 129.854 147.21 129.59 147.49C129.33 147.767 129.2 148.14 129.2 148.61C129.2 149.08 129.334 149.455 129.6 149.735C129.87 150.012 130.219 150.15 130.645 150.15ZM134.592 148.14H133.642V150.435H133.247V148.14H132.297V147.835H134.592V148.14ZM136.406 150.485C136.029 150.485 135.749 150.334 135.566 150.03H135.556V151.535H135.191V147.835H135.541L135.546 148.275H135.556C135.739 147.949 136.023 147.785 136.406 147.785C136.733 147.785 136.989 147.902 137.176 148.135C137.363 148.365 137.456 148.699 137.456 149.135C137.456 149.562 137.359 149.894 137.166 150.13C136.976 150.367 136.723 150.485 136.406 150.485ZM137.096 149.135C137.096 148.795 137.028 148.535 136.891 148.355C136.758 148.175 136.569 148.085 136.326 148.085C136.096 148.085 135.909 148.175 135.766 148.355C135.626 148.535 135.556 148.784 135.556 149.1V149.17C135.556 149.494 135.628 149.744 135.771 149.92C135.914 150.097 136.099 150.185 136.326 150.185C136.563 150.185 136.749 150.095 136.886 149.915C137.026 149.732 137.096 149.472 137.096 149.135ZM139.727 148.365C139.577 148.179 139.371 148.085 139.107 148.085C138.844 148.085 138.636 148.179 138.482 148.365C138.332 148.549 138.257 148.805 138.257 149.135C138.257 149.465 138.332 149.724 138.482 149.91C138.636 150.094 138.844 150.185 139.107 150.185C139.371 150.185 139.577 150.094 139.727 149.91C139.881 149.724 139.957 149.465 139.957 149.135C139.957 148.805 139.881 148.549 139.727 148.365ZM139.997 150.12C139.774 150.364 139.477 150.485 139.107 150.485C138.737 150.485 138.441 150.364 138.217 150.12C137.994 149.877 137.882 149.549 137.882 149.135C137.882 148.722 137.994 148.394 138.217 148.15C138.441 147.907 138.737 147.785 139.107 147.785C139.477 147.785 139.774 147.907 139.997 148.15C140.221 148.394 140.332 148.722 140.332 149.135C140.332 149.549 140.221 149.877 139.997 150.12ZM141.289 149.925H141.299L142.779 147.835H143.189V150.435H142.809V148.345H142.804L141.319 150.435H140.909V147.835H141.289V149.925ZM141.624 147.07C141.741 147.157 141.882 147.2 142.049 147.2C142.216 147.2 142.357 147.157 142.474 147.07C142.591 146.98 142.652 146.874 142.659 146.75H142.974C142.974 146.954 142.886 147.127 142.709 147.27C142.536 147.414 142.316 147.485 142.049 147.485C141.782 147.485 141.561 147.414 141.384 147.27C141.211 147.127 141.124 146.954 141.124 146.75H141.444C141.451 146.874 141.511 146.98 141.624 147.07ZM147.026 150.435V147.455H147.016L145.886 149.35H145.516L144.386 147.455H144.376V150.435H143.991V146.785H144.396L145.696 148.985H145.706L147.006 146.785H147.426V150.435H147.026ZM149.898 148.365C149.748 148.179 149.542 148.085 149.278 148.085C149.015 148.085 148.807 148.179 148.653 148.365C148.503 148.549 148.428 148.805 148.428 149.135C148.428 149.465 148.503 149.724 148.653 149.91C148.807 150.094 149.015 150.185 149.278 150.185C149.542 150.185 149.748 150.094 149.898 149.91C150.052 149.724 150.128 149.465 150.128 149.135C150.128 148.805 150.052 148.549 149.898 148.365ZM150.168 150.12C149.945 150.364 149.648 150.485 149.278 150.485C148.908 150.485 148.612 150.364 148.388 150.12C148.165 149.877 148.053 149.549 148.053 149.135C148.053 148.722 148.165 148.394 148.388 148.15C148.612 147.907 148.908 147.785 149.278 147.785C149.648 147.785 149.945 147.907 150.168 148.15C150.392 148.394 150.503 148.722 150.503 149.135C150.503 149.549 150.392 149.877 150.168 150.12ZM151.47 149.185V150.435H151.08V147.835H151.47V148.895H152.945V147.835H153.335V150.435H152.945V149.185H151.47ZM156.228 148.14H155.278V150.435H154.883V148.14H153.933V147.835H156.228V148.14ZM157.777 147.785C158.14 147.785 158.4 147.86 158.557 148.01C158.714 148.16 158.792 148.407 158.792 148.75V149.735C158.792 149.972 158.817 150.205 158.867 150.435H158.517C158.49 150.305 158.474 150.152 158.467 149.975H158.457C158.367 150.135 158.237 150.26 158.067 150.35C157.897 150.44 157.705 150.485 157.492 150.485C157.252 150.485 157.06 150.419 156.917 150.285C156.774 150.149 156.702 149.965 156.702 149.735C156.702 149.445 156.829 149.215 157.082 149.045C157.335 148.872 157.695 148.785 158.162 148.785H158.427V148.76C158.427 148.507 158.379 148.332 158.282 148.235C158.189 148.135 158.02 148.085 157.777 148.085C157.464 148.085 157.172 148.162 156.902 148.315L156.837 148.02C157.124 147.864 157.437 147.785 157.777 147.785ZM157.062 149.72C157.062 149.87 157.109 149.989 157.202 150.075C157.295 150.159 157.42 150.2 157.577 150.2C157.807 150.2 158.005 150.119 158.172 149.955C158.342 149.789 158.427 149.585 158.427 149.345V149.065H158.162C157.812 149.065 157.54 149.125 157.347 149.245C157.157 149.362 157.062 149.52 157.062 149.72ZM160.906 150.435V149.235H160.641L159.831 150.435H159.441L160.356 149.075L159.466 147.835H159.861L160.641 148.925H160.906V147.835H161.276V148.925H161.541L162.321 147.835H162.716L161.826 149.075L162.741 150.435H162.351L161.541 149.235H161.276V150.435H160.906Z"
    fill="#181818" />
</svg>